<svg width="38" height="48" viewBox="0 0 38 48" fill="none" xmlns="http://www.w3.org/2000/svg">
<g clip-path="url(#clip0_2_5)">
<path d="M6.96505 47.7888C6.03261 47.4229 5.63269 46.4956 6.07136 45.718C6.07136 45.7172 6.17954 45.5265 6.37954 45.1557C6.57856 44.7842 6.86639 44.2402 7.21129 43.5594C7.90116 42.1959 8.82367 40.2816 9.74357 38.0937C11.5887 33.7275 13.3954 28.2239 13.3827 24.0277C13.3827 23.5796 13.3635 23.1478 13.3228 22.7352C12.9973 19.226 10.5812 14.82 7.89627 11.0901C5.22211 7.34981 2.32677 4.24434 1.19173 3.07041C0.866937 2.73434 0.69502 2.56515 0.694124 2.56434C0.0284314 1.90843 0.127007 0.926229 0.914394 0.371751C1.7017 -0.183474 2.87842 -0.101256 3.54412 0.5554C3.57782 0.589414 6.66468 3.63358 9.89042 7.85826C13.1046 12.0997 16.5167 17.4574 17.0414 22.4805C17.0905 22.9873 17.1138 23.5039 17.1138 24.0277C17.1013 28.9104 15.1632 34.583 13.265 39.1236C11.3599 43.6536 9.46527 47.0115 9.44793 47.0434C9.12998 47.6072 8.45907 47.9373 7.75879 47.9373C7.49244 47.9373 7.22195 47.8894 6.96505 47.7888Z" fill="white"/>
<path d="M28.1306 47.0431C28.1143 47.0112 26.2186 43.654 24.3136 39.1233C22.4142 34.5827 20.4762 28.9101 20.4634 24.0282C20.4634 23.502 20.4876 22.9856 20.5371 22.4803C21.0623 17.4571 24.4749 12.1004 27.6887 7.85883C30.9154 3.63409 34.0014 0.589925 34.0351 0.555164L34.036 0.55591C34.701 -0.100746 35.8776 -0.182828 36.6652 0.371447C37.4512 0.926671 37.5506 1.90813 36.8851 2.56485C36.8851 2.56485 36.712 2.73485 36.3877 3.07085C36.063 3.40597 35.5943 3.89921 35.0294 4.51961C33.8989 5.76055 32.3776 7.51136 30.8366 9.52994C27.742 13.553 24.6225 18.7197 24.2562 22.7357C24.2157 23.1498 24.1948 23.5817 24.1948 24.0281C24.1861 27.6959 25.5626 32.3766 27.149 36.4063C28.7305 40.4431 30.5001 43.8565 31.1997 45.1554C31.3987 45.527 31.508 45.7184 31.508 45.7184C31.9467 46.496 31.5464 47.4226 30.6135 47.7893C30.3566 47.8899 30.0869 47.9378 29.821 47.9378C29.1204 47.9377 28.4485 47.6068 28.1306 47.0431Z" fill="white"/>
<path d="M17.1695 13.8236L12.1555 6.50511C11.7222 5.87221 11.8711 5.07801 12.5149 4.58606L17.5289 0.75244C18.2427 0.205974 19.3361 0.205974 20.0498 0.75244L25.0638 4.58606C25.7075 5.07726 25.8563 5.87221 25.4232 6.50511L20.4091 13.8236C20.0785 14.3059 19.4558 14.6071 18.7895 14.6071C18.1236 14.6071 17.5002 14.3058 17.1695 13.8236ZM16.1349 6.04032L18.789 9.91494L21.444 6.03957L18.7895 4.00992L16.1349 6.04032Z" fill="white"/>
</g>
<defs>
<clipPath id="clip0_2_5">
<rect width="37.2" height="48" fill="white" transform="translate(0.200012)"/>
</clipPath>
</defs>
</svg>
